<svg width="12" height="12" viewBox="0 0 12 12" fill="none" xmlns="http://www.w3.org/2000/svg">
<path fill-rule="evenodd" clip-rule="evenodd" d="M10.1931 11.6066C10.5837 11.9971 11.2168 11.9971 11.6073 11.6066C11.9979 11.2161 11.9979 10.5829 11.6073 10.1924L7.36434 5.94938L11.6066 1.70712C11.9971 1.3166 11.9971 0.68343 11.6066 0.292906C11.2161 -0.0976182 10.5829 -0.0976182 10.1924 0.292906L5.95013 4.53517L1.70785 0.292893C1.31733 -0.0976311 0.684162 -0.097631 0.293637 0.292893C-0.0968868 0.683418 -0.0968868 1.31658 0.293638 1.70711L4.53591 5.94938L0.292893 10.1924C-0.0976311 10.5829 -0.0976311 11.2161 0.292893 11.6066C0.683417 11.9971 1.31658 11.9971 1.70711 11.6066L5.95013 7.36359L10.1931 11.6066Z" fill="white"/>
</svg>
