<svg width="30" height="30" viewBox="0 0 30 30" fill="none" xmlns="http://www.w3.org/2000/svg">
<g opacity="0.2">
<circle cx="15" cy="15" r="15" fill="#567A9D"/>
<path d="M13.2723 15.9361C13.2183 15.9361 12.0303 15.9361 11.4903 15.9361C11.2023 15.9361 11.1123 15.8281 11.1123 15.5581C11.1123 14.8381 11.1123 14.1001 11.1123 13.3801C11.1123 13.0921 11.2203 13.0021 11.4903 13.0021H13.2723C13.2723 12.9481 13.2723 11.9041 13.2723 11.4181C13.2723 10.6981 13.3983 10.0141 13.7583 9.38411C14.1363 8.73611 14.6763 8.30412 15.3603 8.05212C15.8103 7.89012 16.2603 7.81812 16.7463 7.81812H18.5103C18.7623 7.81812 18.8703 7.92612 18.8703 8.17812V10.2301C18.8703 10.4821 18.7623 10.5901 18.5103 10.5901C18.0243 10.5901 17.5383 10.5901 17.0523 10.6081C16.5663 10.6081 16.3143 10.8421 16.3143 11.3461C16.2963 11.8861 16.3143 12.4081 16.3143 12.9661H18.4023C18.6903 12.9661 18.7983 13.0741 18.7983 13.3621V15.5401C18.7983 15.8281 18.7083 15.9181 18.4023 15.9181C17.7543 15.9181 16.3683 15.9181 16.3143 15.9181V21.7861C16.3143 22.0921 16.2243 22.2001 15.9003 22.2001C15.1443 22.2001 14.4063 22.2001 13.6503 22.2001C13.3803 22.2001 13.2723 22.0921 13.2723 21.8221C13.2723 19.9321 13.2723 15.9901 13.2723 15.9361Z" fill="white"/>
</g>
</svg>
