<svg width="30" height="30" viewBox="0 0 30 30" fill="none" xmlns="http://www.w3.org/2000/svg">
<g opacity="0.2">
<circle cx="15" cy="15" r="15" fill="black"/>
<g clip-path="url(#clip0)">
<path d="M21.9869 12.822C21.9564 12.1313 21.8447 11.6564 21.6847 11.2449C21.5197 10.8081 21.2657 10.4171 20.933 10.092C20.6079 9.76187 20.2143 9.50533 19.7825 9.34284C19.3687 9.18283 18.8963 9.07113 18.2055 9.04067C17.5096 9.00764 17.2887 9 15.5237 9C13.7587 9 13.5378 9.00764 12.8445 9.03809C12.1538 9.06855 11.6789 9.18035 11.2675 9.34026C10.8306 9.50533 10.4396 9.75929 10.1145 10.092C9.78433 10.4171 9.52789 10.8107 9.3653 11.2424C9.20529 11.6564 9.09359 12.1287 9.06313 12.8195C9.0301 13.5154 9.02246 13.7363 9.02246 15.5013C9.02246 17.2663 9.0301 17.4872 9.06055 18.1805C9.09101 18.8712 9.20281 19.3461 9.36282 19.7576C9.52789 20.1944 9.78433 20.5854 10.1145 20.9105C10.4396 21.2407 10.8332 21.4972 11.2649 21.6597C11.6789 21.8197 12.1512 21.9314 12.842 21.9619C13.5352 21.9924 13.7563 22 15.5212 22C17.2862 22 17.5072 21.9924 18.2005 21.9619C18.8912 21.9314 19.3661 21.8197 19.7775 21.6597C20.6512 21.3219 21.3419 20.6312 21.6797 19.7576C21.8396 19.3436 21.9514 18.8712 21.9818 18.1805C22.0123 17.4872 22.0199 17.2663 22.0199 15.5013C22.0199 13.7363 22.0174 13.5154 21.9869 12.822ZM20.8162 18.1297C20.7883 18.7646 20.6816 19.1074 20.5927 19.336C20.3743 19.9023 19.9248 20.3518 19.3585 20.5703C19.1299 20.6592 18.7846 20.7658 18.1522 20.7937C17.4665 20.8242 17.2608 20.8318 15.5263 20.8318C13.7918 20.8318 13.5835 20.8242 12.9003 20.7937C12.2655 20.7658 11.9226 20.6592 11.6941 20.5703C11.4122 20.4661 11.1557 20.301 10.9475 20.0852C10.7316 19.8744 10.5665 19.6204 10.4624 19.3386C10.3735 19.11 10.2668 18.7646 10.239 18.1323C10.2084 17.4466 10.2009 17.2409 10.2009 15.5063C10.2009 13.7718 10.2084 13.5636 10.239 12.8805C10.2668 12.2456 10.3735 11.9027 10.4624 11.6742C10.5665 11.3922 10.7316 11.1358 10.95 10.9275C11.1607 10.7116 11.4147 10.5466 11.6966 10.4425C11.9252 10.3536 12.2706 10.247 12.9029 10.219C13.5886 10.1885 13.7943 10.1809 15.5288 10.1809C17.2659 10.1809 17.4715 10.1885 18.1547 10.219C18.7896 10.247 19.1325 10.3536 19.361 10.4425C19.6429 10.5466 19.8994 10.7116 20.1076 10.9275C20.3235 11.1383 20.4886 11.3922 20.5927 11.6742C20.6816 11.9027 20.7883 12.2481 20.8162 12.8805C20.8467 13.5661 20.8543 13.7718 20.8543 15.5063C20.8543 17.2409 20.8467 17.444 20.8162 18.1297Z" fill="white"/>
<path d="M15.5241 12.1616C13.6804 12.1616 12.1846 13.6574 12.1846 15.5011C12.1846 17.3449 13.6804 18.8407 15.5241 18.8407C17.3678 18.8407 18.8636 17.3449 18.8636 15.5011C18.8636 13.6574 17.3678 12.1616 15.5241 12.1616ZM15.5241 17.6674C14.328 17.6674 13.3578 16.6973 13.3578 15.5011C13.3578 14.305 14.328 13.3349 15.5241 13.3349C16.7203 13.3349 17.6904 14.305 17.6904 15.5011C17.6904 16.6973 16.7203 17.6674 15.5241 17.6674Z" fill="white"/>
<path d="M19.7752 12.0296C19.7752 12.4602 19.4261 12.8093 18.9954 12.8093C18.5649 12.8093 18.2158 12.4602 18.2158 12.0296C18.2158 11.599 18.5649 11.25 18.9954 11.25C19.4261 11.25 19.7752 11.599 19.7752 12.0296Z" fill="white"/>
</g>
</g>
<defs>
<clipPath id="clip0">
<rect width="13" height="13" fill="white" transform="translate(9 9)"/>
</clipPath>
</defs>
</svg>
