<svg width="54" height="72" viewBox="0 0 54 72" fill="none" xmlns="http://www.w3.org/2000/svg">
<path d="M26.9995 0C12.6213 0 0.923828 11.6975 0.923828 26.0755C0.923828 43.9192 24.259 70.1146 25.2525 71.2211C26.1857 72.2604 27.815 72.2586 28.7465 71.2211C29.74 70.1146 53.0752 43.9192 53.0752 26.0755C53.0749 11.6975 41.3776 0 26.9995 0ZM26.9995 39.1949C19.7655 39.1949 13.8803 33.3096 13.8803 26.0755C13.8803 18.8415 19.7656 12.9563 26.9995 12.9563C34.2334 12.9563 40.1185 18.8416 40.1185 26.0757C40.1185 33.3097 34.2334 39.1949 26.9995 39.1949Z" fill="#FF7F0A"/>
</svg>
