<svg width="30" height="30" viewBox="0 0 30 30" fill="none" xmlns="http://www.w3.org/2000/svg">
<g opacity="0.2">
<circle cx="15" cy="15" r="15" fill="#567A9D"/>
<g clip-path="url(#clip0)">
<path d="M22.8574 18.5782C22.8144 18.5062 22.5484 17.9282 21.2683 16.7401C19.9282 15.496 20.1082 15.698 21.7223 13.5469C22.7054 12.2368 23.0984 11.4367 22.9754 11.0947C22.8584 10.7687 22.1353 10.8547 22.1353 10.8547L19.7312 10.8687C19.7312 10.8687 19.5531 10.8447 19.4201 10.9237C19.2911 11.0017 19.2081 11.1817 19.2081 11.1817C19.2081 11.1817 18.8271 12.1958 18.3191 13.0578C17.248 14.877 16.8189 14.973 16.6439 14.86C16.2369 14.5969 16.3389 13.8019 16.3389 13.2378C16.3389 11.4747 16.6059 10.7397 15.8179 10.5496C15.5559 10.4866 15.3638 10.4446 14.6948 10.4376C13.8367 10.4286 13.1097 10.4406 12.6986 10.6416C12.4246 10.7757 12.2136 11.0747 12.3426 11.0917C12.5016 11.1127 12.8617 11.1887 13.0527 11.4487C13.2997 11.7837 13.2907 12.5378 13.2907 12.5378C13.2907 12.5378 13.4327 14.6129 12.9597 14.871C12.6346 15.048 12.1896 14.6869 11.2345 13.0358C10.7455 12.1908 10.3755 11.2557 10.3755 11.2557C10.3755 11.2557 10.3045 11.0817 10.1775 10.9887C10.0234 10.8757 9.80743 10.8397 9.80743 10.8397L7.52126 10.8537C7.52126 10.8537 7.17824 10.8637 7.05223 11.0127C6.94022 11.1457 7.04323 11.4197 7.04323 11.4197C7.04323 11.4197 8.83336 15.607 10.8595 17.7182C12.7186 19.6533 14.8288 19.5263 14.8288 19.5263H15.7849C15.7849 19.5263 16.0739 19.4943 16.2209 19.3353C16.3569 19.1893 16.3519 18.9153 16.3519 18.9153C16.3519 18.9153 16.3329 17.6322 16.929 17.4432C17.516 17.2571 18.2701 18.6832 19.0691 19.2323C19.6732 19.6473 20.1322 19.5563 20.1322 19.5563L22.2693 19.5263C22.2693 19.5263 23.3874 19.4573 22.8574 18.5782Z" fill="white"/>
</g>
</g>
<defs>
<clipPath id="clip0">
<rect width="16" height="16" fill="white" transform="translate(7 7)"/>
</clipPath>
</defs>
</svg>
