<svg width="51" height="62" viewBox="0 0 51 62" fill="none" xmlns="http://www.w3.org/2000/svg">
<path d="M46.2755 53.102C46.7045 52.7542 46.7703 52.1244 46.4225 51.6954L40.7549 44.7042C40.4071 44.2752 39.7773 44.2093 39.3483 44.5571C38.9193 44.9049 38.8534 45.5346 39.2012 45.9637L44.2392 52.1781L38.0248 57.216C37.5957 57.5638 37.5299 58.1936 37.8777 58.6226C38.2255 59.0516 38.8552 59.1174 39.2842 58.7696L46.2755 53.102ZM15.3043 0.753627C13.2819 8.70808 12.3304 20.89 16.1266 31.5767C18.0304 36.9365 21.1368 41.9409 25.919 45.8268C30.7042 49.7153 37.1116 52.4383 45.5417 53.3197L45.7497 51.3306C37.6507 50.4838 31.624 47.8856 27.1803 44.2747C22.7335 40.6613 19.816 35.9882 18.0112 30.9073C14.3899 20.7127 15.2814 8.96018 17.2426 1.24644L15.3043 0.753627Z" fill="#FF7F0A"/>
</svg>
